<svg xmlns="http://www.w3.org/2000/svg" width="29" height="29"><g fill="#B3B3B3" fill-rule="evenodd"><path d="M14.501 1C21.956 1 28 7.044 28 14.5S21.833 28 14.38 28C6.923 28 1 21.956 1 14.5 1.002 7.042 7.044 1 14.501 1zM14.5 0C6.504 0 0 6.504 0 14.5S6.453 29 14.386 29C22.444 29 29 22.496 29 14.5S22.496 0 14.5 0z"/><path d="M19.487 23.743c-1.145-.237-1.552-.805-1.615-2.077-.007-.186-.236-1.723-.05-1.825.758-.4.878-1.678.952-2.461.053-.575.337-.832.588-1.308.276-.51.538-1.236.684-1.802.114-.41.309-1.095.228-1.522-.072-.4-.35-.765-.35-1.183 0-.54.07-.98.127-1.52a8.771 8.771 0 00-.085-2.508 4.123 4.123 0 00-.48-1.251 3.733 3.733 0 00-1.175-1.213c-.979-.643-2.31-1.092-3.543-1.072-1.237-.022-2.572.427-3.551 1.07-.461.308-.88.72-1.176 1.215-.21.362-.389.822-.47 1.25a8.693 8.693 0 00-.085 2.507c.057.538.124.978.124 1.517 0 .419-.28.783-.351 1.184-.073.429.124 1.114.231 1.524.145.568.411 1.291.684 1.802.252.476.536.732.586 1.307.07.783.199 2.064.955 2.462.182.102-.046 1.639-.057 1.825-.063 1.271-.467 1.84-1.613 2.076-.837.173-1.663.403-2.465.704C7.4 24.51 6 25.624 6 25.786c0 0 3.143 3.207 8.768 3.214 5.62-.007 9.232-3.495 9.232-3.495-.173-.092-1.866-.99-2.05-1.059a16.217 16.217 0 00-2.463-.703z"/></g></svg>